<svg width="147" height="163" viewBox="0 0 147 163" fill="none" xmlns="http://www.w3.org/2000/svg">
<path d="M13.078 33.2686L13.088 33.2629L13.0979 33.257L62.1903 4.03461C65.7373 2.06369 69.7282 1.02934 73.7861 1.02934C77.844 1.02934 81.8348 2.06367 85.3818 4.03454L134.466 33.2651L134.471 33.2678C134.934 33.5406 135.368 33.8611 135.765 34.224L135.806 34.2613L135.85 34.2941L136.761 34.9632C139.4 36.9998 141.574 39.5768 143.137 42.5217C144.698 45.4645 145.613 48.7068 145.821 52.0316L145.861 53.6297V106.885C145.853 115.398 141.237 123.22 134.242 127.091L134.213 127.107L134.186 127.124L84.8958 158.595C77.847 162.496 69.2701 162.506 61.7811 158.343L13.3459 127.377L13.319 127.36L13.291 127.345C9.64078 125.318 6.59858 122.353 4.47953 118.756C2.3606 115.159 1.24176 111.061 1.23887 106.886L1.23887 53.6167L1.23887 53.6144C1.22952 49.4776 2.32115 45.4129 4.40172 41.8374C6.48229 38.2619 9.47685 35.3044 13.078 33.2686Z" fill="#0C0A08" fill-opacity="0.93" stroke="#E59F41" stroke-width="2.05867"/>
</svg>
