<svg width="29" height="30" viewBox="0 0 29 30" fill="none" xmlns="http://www.w3.org/2000/svg">
<path d="M8.31741 0.625305H20.3633C24.9522 0.625305 28.6807 4.3538 28.6807 8.94271V20.9886C28.6807 23.1945 27.8044 25.3101 26.2446 26.8699C24.6848 28.4297 22.5692 29.306 20.3633 29.306H8.31741C3.72849 29.306 0 25.5775 0 20.9886V8.94271C0 6.7368 0.876296 4.62123 2.43611 3.06142C3.99593 1.5016 6.11149 0.625305 8.31741 0.625305ZM8.0306 3.49338C6.66141 3.49338 5.3483 4.03728 4.38014 5.00545C3.41198 5.97361 2.86807 7.28672 2.86807 8.6559V21.2754C2.86807 24.1291 5.17687 26.4379 8.0306 26.4379H20.6501C22.0193 26.4379 23.3324 25.894 24.3006 24.9259C25.2687 23.9577 25.8126 22.6446 25.8126 21.2754V8.6559C25.8126 5.80217 23.5038 3.49338 20.6501 3.49338H8.0306ZM21.869 5.64443C22.3445 5.64443 22.8004 5.83329 23.1366 6.16945C23.4727 6.50562 23.6616 6.96156 23.6616 7.43697C23.6616 7.91239 23.4727 8.36833 23.1366 8.70449C22.8004 9.04066 22.3445 9.22952 21.869 9.22952C21.3936 9.22952 20.9377 9.04066 20.6015 8.70449C20.2654 8.36833 20.0765 7.91239 20.0765 7.43697C20.0765 6.96156 20.2654 6.50562 20.6015 6.16945C20.9377 5.83329 21.3936 5.64443 21.869 5.64443ZM14.3404 7.79548C16.242 7.79548 18.0658 8.55091 19.4104 9.89558C20.7551 11.2402 21.5105 13.064 21.5105 14.9657C21.5105 16.8673 20.7551 18.6911 19.4104 20.0357C18.0658 21.3804 16.242 22.1358 14.3404 22.1358C12.4387 22.1358 10.6149 21.3804 9.27027 20.0357C7.9256 18.6911 7.17018 16.8673 7.17018 14.9657C7.17018 13.064 7.9256 11.2402 9.27027 9.89558C10.6149 8.55091 12.4387 7.79548 14.3404 7.79548ZM14.3404 10.6636C13.1994 10.6636 12.1051 11.1168 11.2983 11.9236C10.4915 12.7304 10.0382 13.8247 10.0382 14.9657C10.0382 16.1067 10.4915 17.2009 11.2983 18.0077C12.1051 18.8145 13.1994 19.2678 14.3404 19.2678C15.4813 19.2678 16.5756 18.8145 17.3824 18.0077C18.1892 17.2009 18.6425 16.1067 18.6425 14.9657C18.6425 13.8247 18.1892 12.7304 17.3824 11.9236C16.5756 11.1168 15.4813 10.6636 14.3404 10.6636Z" fill="#E59F41"/>
</svg>
