<svg width="30" height="26" viewBox="0 0 30 26" fill="none" xmlns="http://www.w3.org/2000/svg">
<path d="M30 3.55264C28.8958 4.05455 27.7056 4.38438 26.4723 4.54213C27.7342 3.78209 28.7094 2.5775 29.1683 1.12912C27.978 1.84614 26.6587 2.34805 25.2677 2.63486C24.1348 1.40159 22.543 0.68457 20.7362 0.68457C17.3662 0.68457 14.6128 3.43792 14.6128 6.83658C14.6128 7.32415 14.6702 7.79739 14.7706 8.24194C9.6654 7.98381 5.11951 5.53161 2.09369 1.81746C1.5631 2.7209 1.26195 3.78209 1.26195 4.90063C1.26195 7.03735 2.33748 8.93027 4.00096 10.0058C2.98279 10.0058 2.03633 9.71899 1.20459 9.28878V9.3318C1.20459 12.3146 3.32696 14.8098 6.13767 15.3691C5.23527 15.616 4.2879 15.6504 3.36998 15.4695C3.75948 16.692 4.52228 17.7617 5.55118 18.5282C6.58007 19.2947 7.8233 19.7195 9.10613 19.7429C6.9316 21.4644 4.23614 22.3949 1.46272 22.3815C0.975144 22.3815 0.487572 22.3528 0 22.2955C2.72467 24.045 5.96559 25.0632 9.43595 25.0632C20.7362 25.0632 26.9455 15.6846 26.9455 7.5536C26.9455 7.28113 26.9455 7.02301 26.9312 6.75054C28.1358 5.89012 29.1683 4.80025 30 3.55264Z" fill="#E59F41"/>
</svg>
