<svg width="28" height="28" viewBox="0 0 28 28" fill="none" xmlns="http://www.w3.org/2000/svg">
<g clip-path="url(#clip0_225_2)">
<path d="M3.5 24.5L5.425 20.0667C3.95227 17.9761 3.29311 15.4199 3.57122 12.8778C3.84933 10.3357 5.04558 7.98249 6.93549 6.25977C8.8254 4.53705 11.279 3.56324 13.8359 3.52111C16.3928 3.47898 18.8772 4.37141 20.8229 6.03093C22.7685 7.69045 24.0417 10.003 24.4034 12.5345C24.7651 15.066 24.1905 17.6426 22.7875 19.7806C21.3844 21.9185 19.2493 23.471 16.783 24.1466C14.3166 24.8222 11.6884 24.5745 9.39167 23.45L3.5 24.5Z" stroke="#E59F41" stroke-width="2.75" stroke-linecap="round" stroke-linejoin="round"/>
<path d="M10.5 11.6667C10.5 11.8214 10.5615 11.9697 10.6709 12.0791C10.7803 12.1885 10.9286 12.25 11.0833 12.25C11.238 12.25 11.3864 12.1885 11.4958 12.0791C11.6052 11.9697 11.6667 11.8214 11.6667 11.6667V10.5C11.6667 10.3453 11.6052 10.1969 11.4958 10.0875C11.3864 9.97811 11.238 9.91666 11.0833 9.91666C10.9286 9.91666 10.7803 9.97811 10.6709 10.0875C10.5615 10.1969 10.5 10.3453 10.5 10.5V11.6667ZM10.5 11.6667C10.5 13.2138 11.1146 14.6975 12.2085 15.7914C13.3025 16.8854 14.7862 17.5 16.3333 17.5M16.3333 17.5H17.5C17.6547 17.5 17.8031 17.4385 17.9125 17.3291C18.0219 17.2197 18.0833 17.0714 18.0833 16.9167C18.0833 16.7619 18.0219 16.6136 17.9125 16.5042C17.8031 16.3948 17.6547 16.3333 17.5 16.3333H16.3333C16.1786 16.3333 16.0303 16.3948 15.9209 16.5042C15.8115 16.6136 15.75 16.7619 15.75 16.9167C15.75 17.0714 15.8115 17.2197 15.9209 17.3291C16.0303 17.4385 16.1786 17.5 16.3333 17.5Z" stroke="#E59F41" stroke-width="2.75" stroke-linecap="round" stroke-linejoin="round"/>
</g>
<defs>
<clipPath id="clip0_225_2">
<rect width="28" height="28" fill="white"/>
</clipPath>
</defs>
</svg>
